<svg height="512pt" viewBox="-138 0 511 512" width="512pt" xmlns="http://www.w3.org/2000/svg"><path d="m118.09375 41.625h117.59375v-31.21875c0-5.746094-4.660156-10.40625-10.40625-10.40625h-214.375c-5.746094 0-10.40625 4.660156-10.40625 10.40625v31.222656h117.59375zm0 0" fill="#ffea84"/><path d="m225.28125 0h-8.328125v21.59375c0 5.746094-4.65625 10.40625-10.402344 10.40625h-206.050781v9.625h235.1875v-31.21875c0-5.746094-4.660156-10.40625-10.40625-10.40625zm0 0" fill="#ffe046"/><path d="m170.125 512h-104.066406c-11.492188 0-20.8125-9.316406-20.8125-20.8125v-52.035156h145.691406v52.035156c0 11.496094-9.316406 20.8125-20.8125 20.8125zm0 0" fill="#a4f7c5"/><path d="m172.207031 439.152344v52.035156c0 11.496094-9.316406 20.8125-20.8125 20.8125h18.730469c11.496094 0 20.8125-9.316406 20.8125-20.8125v-52.035156zm0 0" fill="#7af4ab"/><path d="m235.6875 41.625-9.007812 228.757812c-.929688 23.644532-4.378907 47.125-10.285157 70.035157l-25.453125 98.738281h-145.695312l-25.453125-98.738281c-5.90625-22.910157-9.355469-46.390625-10.285157-70.035157l-9.007812-228.757812zm0 0" fill="#ffea84"/><path d="m216.953125 41.625-9.003906 228.757812c-.929688 23.644532-4.378907 47.125-10.289063 70.035157l-25.453125 98.738281h18.730469l25.457031-98.738281c5.90625-22.910157 9.355469-46.390625 10.285157-70.035157l9.007812-228.757812zm0 0" fill="#ffe046"/><path d="m170.125 185.234375c0 28.738281-23.296875 52.035156-52.03125 52.035156-28.738281 0-52.035156-23.296875-52.035156-52.035156 0-28.734375 23.296875-52.03125 52.035156-52.03125 28.734375 0 52.03125 23.296875 52.03125 52.03125zm0 0" fill="#fc9842"/><path d="m148.101562 142.742188c6 8.480468 9.535157 18.828124 9.535157 30.003906 0 28.738281-23.296875 52.035156-52.03125 52.035156-11.179688 0-21.527344-3.539062-30.007813-9.539062 9.421875 13.320312 24.9375 22.027343 42.496094 22.027343 28.734375 0 52.03125-23.296875 52.03125-52.035156 0-17.554687-8.703125-33.070313-22.023438-42.492187zm0 0" fill="#fb8723"/><path d="m47.847656 27.058594v14.566406h-15.609375v-14.566406c0-4.308594 3.496094-7.804688 7.804688-7.804688 4.308593 0 7.804687 3.496094 7.804687 7.804688zm0 0" fill="#ffe046"/><path d="m79.070312 27.058594v14.566406h-15.609374v-14.566406c0-4.308594 3.496093-7.804688 7.804687-7.804688 4.304687 0 7.804687 3.496094 7.804687 7.804688zm0 0" fill="#ffe046"/><path d="m110.289062 27.058594v14.566406h-15.609374v-14.566406c0-4.308594 3.496093-7.804688 7.804687-7.804688 4.304687 0 7.804687 3.496094 7.804687 7.804688zm0 0" fill="#ffe046"/><path d="m141.507812 27.058594v14.566406h-15.609374v-14.566406c0-4.308594 3.496093-7.804688 7.804687-7.804688s7.804687 3.496094 7.804687 7.804688zm0 0" fill="#ffe046"/><path d="m172.726562 27.058594v14.566406h-15.609374v-14.566406c0-4.308594 3.496093-7.804688 7.804687-7.804688s7.804687 3.496094 7.804687 7.804688zm0 0" fill="#ffe046"/><path d="m203.945312 27.058594v14.566406h-15.609374v-14.566406c0-4.308594 3.496093-7.804688 7.804687-7.804688s7.804687 3.496094 7.804687 7.804688zm0 0" fill="#ffe046"/><path d="m146.300781 470.894531-8.121093-8.121093c-1.460938-1.464844-3.449219-2.285157-5.519532-2.285157h-29.136718c-2.070313 0-4.054688.820313-5.519532 2.285157l-8.117187 8.121093h-44.640625v15.609375h47.871094c2.070312 0 4.054687-.820312 5.519531-2.285156l8.121093-8.121094h22.671876l8.121093 8.121094c1.464844 1.464844 3.449219 2.285156 5.519531 2.285156h47.867188v-15.609375zm0 0" fill="#7af4ab"/><g fill="#fc9842"><path d="m118.09375 120.195312c-4.3125 0-7.804688-3.496093-7.804688-7.804687v-10.40625c0-4.3125 3.492188-7.804687 7.804688-7.804687 4.308594 0 7.804688 3.492187 7.804688 7.804687v10.40625c0 4.308594-3.496094 7.804687-7.804688 7.804687zm0 0"/><path d="m66.585938 141.53125c-2 0-3.996094-.761719-5.519532-2.285156l-7.359375-7.359375c-3.050781-3.046875-3.050781-7.988281 0-11.039063 3.046875-3.046875 7.988281-3.046875 11.035157 0l7.359374 7.359375c3.050782 3.046875 3.050782 7.988281.003907 11.035157-1.527344 1.527343-3.523438 2.289062-5.519531 2.289062zm0 0"/><path d="m45.246094 193.039062h-10.40625c-4.308594 0-7.804688-3.492187-7.804688-7.804687 0-4.308594 3.496094-7.804687 7.804688-7.804687h10.40625c4.3125 0 7.804687 3.496093 7.804687 7.804687 0 4.3125-3.492187 7.804687-7.804687 7.804687zm0 0"/><path d="m59.226562 251.910156c-2 0-3.996093-.761718-5.519531-2.289062-3.050781-3.046875-3.050781-7.988282 0-11.035156l7.359375-7.359376c3.046875-3.046874 7.988282-3.046874 11.039063 0 3.046875 3.050782 3.046875 7.992188-.003907 11.039063l-7.359374 7.359375c-1.523438 1.519531-3.519532 2.285156-5.515626 2.285156zm0 0"/><path d="m118.09375 276.292969c-4.3125 0-7.804688-3.492188-7.804688-7.804688v-10.40625c0-4.308593 3.492188-7.804687 7.804688-7.804687 4.308594 0 7.804688 3.492187 7.804688 7.804687v10.40625c0 4.308594-3.496094 7.804688-7.804688 7.804688zm0 0"/><path d="m176.960938 251.910156c-1.996094 0-3.996094-.761718-5.519532-2.289062l-7.355468-7.355469c-3.050782-3.046875-3.050782-7.992187-.003907-11.039063 3.050781-3.046874 7.992188-3.046874 11.039063 0l7.359375 7.359376c3.046875 3.046874 3.046875 7.988281 0 11.035156-1.523438 1.523437-3.523438 2.289062-5.519531 2.289062zm0 0"/><path d="m201.34375 193.039062h-10.40625c-4.308594 0-7.804688-3.492187-7.804688-7.804687 0-4.308594 3.496094-7.804687 7.804688-7.804687h10.40625c4.3125 0 7.804688 3.496093 7.804688 7.804687 0 4.3125-3.492188 7.804687-7.804688 7.804687zm0 0"/><path d="m169.601562 141.53125c-1.996093 0-3.996093-.761719-5.519531-2.285156-3.046875-3.050782-3.046875-7.992188.003907-11.039063l7.355468-7.359375c3.050782-3.046875 7.992188-3.042968 11.039063.003906 3.046875 3.046876 3.046875 7.988282 0 11.035157l-7.359375 7.359375c-1.523438 1.523437-3.523438 2.285156-5.519532 2.285156zm0 0"/></g><path d="m155.554688 307.511719h-83.25c-4.3125 0-7.804688-3.492188-7.804688-7.804688 0-4.308593 3.492188-7.804687 7.804688-7.804687h83.25c4.3125 0 7.804687 3.492187 7.804687 7.804687s-3.492187 7.804688-7.804687 7.804688zm0 0" fill="#7af4ab"/><path d="m145.148438 338.730469h-62.4375c-4.3125 0-7.804688-3.492188-7.804688-7.804688 0-4.308593 3.492188-7.804687 7.804688-7.804687h62.4375c4.3125 0 7.804687 3.496094 7.804687 7.804687 0 4.3125-3.492187 7.804688-7.804687 7.804688zm0 0" fill="#7af4ab"/></svg>