<?xml version="1.0" encoding="iso-8859-1"?>
<!-- Generator: Adobe Illustrator 19.0.0, SVG Export Plug-In . SVG Version: 6.00 Build 0)  -->
<svg version="1.1" id="Layer_1" xmlns="http://www.w3.org/2000/svg" xmlns:xlink="http://www.w3.org/1999/xlink" x="0px" y="0px"
	 viewBox="0 0 512 512" style="enable-background:new 0 0 512 512;" xml:space="preserve">
<polygon style="fill:#3EDDB3;" points="273.37,218.947 273.37,466.239 238.636,466.226 238.636,218.947 "/>
<g>
	<polygon style="fill:#2AC497;" points="250.215,218.947 250.215,466.239 238.636,466.226 238.636,218.947 	"/>
	<rect x="238.641" y="186.842" style="fill:#2AC497;" width="34.733" height="68.865"/>
</g>
<path style="fill:#F94848;" d="M474.948,218.948C474.948,98.027,376.921,0,255.999,0S37.052,98.027,37.052,218.948H474.948z"/>
<path style="fill:#F2F2F2;" d="M255.996,0.001c-28.331,0-51.301,98.029-51.301,218.947h-97.242
	C107.453,98.03,173.956,0.001,255.996,0.001z"/>
<path style="fill:#DB3A3A;" d="M255.999,0.001c-64.697,0-122.944,98.029-122.944,218.947H37.052
	C37.052,98.03,135.081,0.001,255.999,0.001z"/>
<path style="fill:#E6E6E6;" d="M254.479,0.024c-64.002,1.505-115.639,98.955-115.639,218.924h-31.387
	C107.453,98.771,173.134,1.205,254.479,0.024z"/>
<path style="fill:#F2F2F2;" d="M404.539,218.947h-97.242C307.297,98.029,284.327,0,255.996,0
	C338.036,0.001,404.539,98.03,404.539,218.947z"/>
<path style="fill:#FFD41D;" d="M394.127,512c-76.286-76.286-199.969-76.286-276.255,0"/>
<path style="fill:#E8C11C;" d="M117.872,512h67.726c29.496-29.496,66.078-47.575,104.265-54.263
	C229.284,447.129,164.662,465.208,117.872,512z"/>
<g>
</g>
<g>
</g>
<g>
</g>
<g>
</g>
<g>
</g>
<g>
</g>
<g>
</g>
<g>
</g>
<g>
</g>
<g>
</g>
<g>
</g>
<g>
</g>
<g>
</g>
<g>
</g>
<g>
</g>
</svg>
